<svg xmlns="http://www.w3.org/2000/svg" width="233" height="40" viewBox="0 0 233 40" fill="none"><g clip-path="url(#clip0_2_645)"><path d="M25.8666 40.2666C17.2444 40.2666 8.75549 40.2666 0.266602 40.2666C0.266602 26.9333 0.266602 13.5999 0.266602 0.266602C13.5999 0.266602 26.9333 0.266602 40.2666 0.266602C40.2666 13.5999 40.2666 26.9333 40.2666 40.2666C35.511 40.2666 30.7555 40.2666 25.8666 40.2666ZM19.696 35.5343C19.9241 36.0257 20.0477 36.8332 20.3997 36.9496C21.4831 37.3077 21.702 36.5886 21.6979 35.6199C21.671 29.3124 21.6845 23.0047 21.6844 16.697C21.6844 12.6104 21.6904 8.52371 21.679 4.43709C21.6759 3.28737 21.1722 2.80962 20.2858 3.24296C19.9446 3.40973 19.7217 4.15086 19.7202 4.63116C19.6885 14.8477 19.696 25.0643 19.696 35.5343ZM24.6096 26.5016C24.6111 26.99 24.6312 27.4791 24.61 27.9665C24.5752 28.7661 25.033 28.9215 25.7106 28.912C26.334 28.9033 26.7172 28.7598 26.7156 28.0231C26.7025 21.7189 26.7221 15.4146 26.6686 9.11082C26.6659 8.79355 26.1224 8.2811 25.7578 8.20393C24.6415 7.96763 24.6007 8.76291 24.6028 9.59424C24.6165 15.1437 24.6097 20.6932 24.6096 26.5016ZM16.6064 30.7093C16.6102 24.4521 16.6085 18.1948 16.6246 11.9377C16.6266 11.1765 16.5271 10.6662 15.5559 10.6881C14.6068 10.7096 14.6267 11.2757 14.6271 11.9305C14.6313 18.0546 14.6218 24.1788 14.6501 30.3028C14.6518 30.676 14.9386 31.3614 15.0956 31.3622C15.5886 31.3649 16.083 31.1097 16.6064 30.7093ZM11.6572 16.6666C11.6559 14.6283 11.6369 12.5897 11.6617 10.5516C11.6717 9.72572 11.2829 9.48247 10.5187 9.48568C9.74355 9.48894 9.54504 9.8611 9.54816 10.5612C9.56536 14.4163 9.56711 18.2716 9.54713 22.1266C9.54319 22.8864 9.7534 23.265 10.5982 23.2597C11.4364 23.2545 11.6703 22.8711 11.6611 22.1177C11.6402 20.3898 11.6562 18.6614 11.6572 16.6666ZM29.3243 22.0885C29.3247 24.7457 29.3338 27.403 29.3198 30.0601C29.3161 30.76 29.4097 31.2455 30.305 31.2629C31.2504 31.2812 31.4031 30.7962 31.398 30.0216C31.3801 27.3202 31.3871 24.6187 31.3951 21.9172C31.3971 21.2519 31.3837 20.6934 30.4542 20.6773C29.5799 20.6622 29.22 20.9913 29.3243 22.0885ZM6.48558 13.8007C6.5433 13.0256 6.36365 12.5233 5.40708 12.5616C4.4671 12.5992 4.49293 13.1926 4.49353 13.8402C4.49641 16.9477 4.50399 20.0551 4.48804 23.1625C4.48426 23.9007 4.53021 24.4648 5.51726 24.4585C6.55136 24.4519 6.48797 23.7964 6.48724 23.1101C6.48401 20.0914 6.48615 17.0728 6.48558 13.8007ZM34.0958 20.6703C34.0968 22.7121 34.1092 24.7541 34.0921 26.7958C34.0866 27.4441 34.2833 27.78 35.0011 27.7787C35.6917 27.7775 36.0921 27.614 36.0866 26.8218C36.0668 23.9811 36.0706 21.1401 36.088 18.2994C36.0923 17.5916 35.859 17.2441 35.0924 17.2413C34.3378 17.2386 34.0553 17.5432 34.0905 18.2753C34.1245 18.9839 34.0965 19.6954 34.0958 20.6703Z" fill="#A7D04F"></path><path d="M19.696 35.4076C19.6961 25.0643 19.6886 14.8476 19.7203 4.63112C19.7218 4.15083 19.9447 3.40969 20.2859 3.24292C21.1723 2.80958 21.676 3.28733 21.6791 4.43706C21.6905 8.52367 21.6845 12.6103 21.6845 16.697C21.6846 23.0046 21.6711 29.3123 21.698 35.6199C21.7021 36.5885 21.4832 37.3076 20.3998 36.9495C20.0478 36.8332 19.9242 36.0257 19.696 35.4076Z" fill="#FEFFFE"></path><path d="M24.6099 26.3723C24.61 20.6934 24.6168 15.1439 24.6031 9.5944C24.601 8.76307 24.6418 7.9678 25.7581 8.2041C26.1227 8.28127 26.6662 8.79372 26.6689 9.11099C26.7224 15.4148 26.7027 21.7191 26.7159 28.0233C26.7175 28.7599 26.3343 28.9034 25.7109 28.9122C25.0333 28.9217 24.5755 28.7662 24.6103 27.9666C24.6315 27.4793 24.6114 26.9901 24.6099 26.3723Z" fill="#FAFCF5"></path><path d="M16.5916 30.8318C16.0829 31.1097 15.5885 31.3649 15.0955 31.3623C14.9385 31.3614 14.6517 30.676 14.65 30.3028C14.6217 24.1788 14.6312 18.0547 14.627 11.9306C14.6266 11.2757 14.6067 10.7096 15.5558 10.6882C16.527 10.6662 16.6265 11.1765 16.6246 11.9377C16.6084 18.1949 16.6101 24.4521 16.5916 30.8318Z" fill="#FEFEFD"></path><path d="M11.6575 16.7999C11.6565 18.6614 11.6405 20.3898 11.6614 22.1177C11.6705 22.871 11.4367 23.2545 10.5984 23.2597C9.75369 23.2649 9.54348 22.8863 9.54742 22.1266C9.5674 18.2715 9.56565 14.4162 9.54845 10.5612C9.54533 9.86105 9.74384 9.48888 10.519 9.48563C11.2832 9.48242 11.672 9.72567 11.662 10.5516C11.6372 12.5896 11.6561 14.6282 11.6575 16.7999Z" fill="#FAFCF5"></path><path d="M29.3247 21.9678C29.2201 20.9913 29.58 20.6621 30.4543 20.6773C31.3838 20.6933 31.3972 21.2519 31.3952 21.9172C31.3872 24.6186 31.3802 27.3202 31.3981 30.0216C31.4033 30.7961 31.2505 31.2811 30.3051 31.2628C29.4098 31.2455 29.3162 30.76 29.3199 30.06C29.3339 27.4029 29.3249 24.7457 29.3247 21.9678Z" fill="#F9FCF3"></path><path d="M6.48589 13.9275C6.48608 17.0728 6.48395 20.0915 6.48717 23.1101C6.4879 23.7965 6.55129 24.4519 5.5172 24.4585C4.53014 24.4648 4.48419 23.9008 4.48798 23.1625C4.50392 20.0552 4.49635 16.9477 4.49346 13.8403C4.49286 13.1926 4.46703 12.5993 5.40701 12.5616C6.36358 12.5233 6.54323 13.0257 6.48589 13.9275Z" fill="#FDFEFC"></path><path d="M34.0956 20.5381C34.0964 19.6955 34.1243 18.984 34.0903 18.2755C34.0551 17.5434 34.3376 17.2387 35.0922 17.2415C35.8588 17.2443 36.0921 17.5917 36.0878 18.2996C36.0704 21.1403 36.0667 23.9813 36.0864 26.822C36.092 27.6141 35.6916 27.7776 35.0009 27.7789C34.2831 27.7801 34.0864 27.4442 34.0919 26.7959C34.109 24.7542 34.0966 22.7123 34.0956 20.5381Z" fill="#FEFFFE"></path></g><path d="M158.956 22.3364C157.477 22.3364 156.114 22.3364 154.65 22.3364C154.65 21.2627 154.65 20.2786 154.65 19.2007C157.719 19.2007 160.762 19.2007 163.803 19.2007C164.672 23.4795 162.315 27.955 158.407 29.4639C154.208 31.0855 149.658 28.6771 147.885 23.8944C146.175 19.2804 147.792 13.7658 151.582 11.2821C155.377 8.79486 160.302 10.0701 162.713 14.2933C161.885 14.8937 161.059 15.4931 160.159 16.1465C158.941 14.6279 157.634 13.1355 155.756 13.319C154.697 13.4225 153.549 13.8788 152.668 14.5742C150.568 16.2322 149.828 19.5935 150.73 22.3959C151.61 25.1332 153.84 26.9338 156.082 26.7177C158.198 26.5137 160.029 24.7136 160.422 22.3364C159.958 22.3364 159.515 22.3364 158.956 22.3364Z" fill="white"></path><path d="M88.6656 20.8563C88.4862 19.4374 88.9356 19.0431 90.0353 19.0817C92.6388 19.1732 95.2462 19.1111 97.8229 19.1111C98.9019 22.8749 96.6419 27.5172 92.9651 29.2468C88.7879 31.2117 84.0089 28.9461 82.1047 24.0981C80.2355 19.3393 81.8984 13.6693 85.891 11.1873C89.6461 8.85289 94.7137 10.2566 96.7517 14.3183C96.17 14.7411 95.5691 15.1416 95.0023 15.6005C94.4599 16.0397 94.0921 15.9193 93.6126 15.384C91.5915 13.1278 89.7278 12.6844 87.6476 13.8577C85.6114 15.0062 84.2808 17.7486 84.4484 20.4514C84.6243 23.2873 86.2484 25.719 88.4923 26.5058C91.0486 27.4021 93.861 25.5777 94.5767 22.3345C92.9389 22.3345 91.3497 22.2841 89.7643 22.3542C88.8675 22.3938 88.5595 21.9722 88.6656 20.8563Z" fill="white"></path><path d="M171.69 10.327C172.847 10.3451 173.894 10.2463 174.911 10.4048C177.282 10.7743 178.913 12.6055 179.441 15.306C179.994 18.1343 179.186 20.8716 177.325 22.4541C177.029 22.706 176.72 22.9371 176.292 23.2772C176.959 24.3331 177.594 25.3323 178.223 26.3369C178.855 27.346 179.481 28.3605 180.28 29.6469C178.992 29.6469 177.941 29.6995 176.898 29.6138C176.598 29.5891 176.253 29.2284 176.047 28.914C175.239 27.6806 174.401 26.4589 173.724 25.1278C173.074 23.8512 172.262 23.258 171.005 23.4967C170.644 23.5651 170.266 23.5071 169.721 23.5071C169.721 25.5315 169.721 27.4945 169.721 29.5537C168.582 29.5537 167.616 29.5537 166.565 29.5537C166.565 23.2089 166.565 16.898 166.565 10.327C168.217 10.327 169.892 10.327 171.69 10.327ZM170.385 13.5552C170.152 13.7461 169.721 13.9303 169.716 14.1291C169.666 16.1515 169.685 18.1762 169.685 20.2774C171.249 20.2774 172.615 20.3403 173.974 20.2609C175.544 20.1692 176.504 18.7341 176.439 16.7422C176.373 14.7225 175.474 13.5977 173.855 13.5579C172.778 13.5314 171.701 13.5528 170.385 13.5552Z" fill="white"></path><path d="M184.346 12.9329C189.287 7.45667 196.744 10.2004 198.507 17.2169C199.67 21.8424 197.873 26.616 194.235 28.8403C190.699 31.0017 186.308 29.9457 183.773 26.3245C181.217 22.6731 181.189 17.5368 183.707 13.7723C183.886 13.5048 184.09 13.2612 184.346 12.9329ZM186.9 14.9001C186.648 15.2215 186.359 15.5122 186.152 15.8693C184.742 18.2984 184.549 20.8489 185.801 23.4225C186.895 25.6691 188.574 26.9045 190.814 26.6894C193.021 26.4774 195.001 24.2423 195.531 21.5804C196.079 18.8218 195.094 15.8573 193.108 14.2873C191.184 12.767 189.173 12.9229 186.9 14.9001Z" fill="white"></path><path d="M102.446 11.9377C105.485 15.2366 108.461 18.4648 111.752 22.0362C111.752 20.7057 111.752 19.8138 111.752 18.9218C111.752 16.5821 111.82 14.2387 111.726 11.9042C111.672 10.5577 112.096 10.1628 113.149 10.3144C113.634 10.3843 114.132 10.3263 114.753 10.3263C114.753 16.7745 114.753 23.1138 114.753 29.8701C111.077 25.9652 107.588 22.2598 103.797 18.2331C103.797 22.2823 103.797 25.8509 103.797 29.5346C102.695 29.5346 101.77 29.5346 100.734 29.5346C100.734 23.176 100.734 16.8394 100.734 10.1436C101.421 10.8615 101.901 11.3642 102.446 11.9377Z" fill="white"></path><path d="M57.5005 29.7619C55.791 29.0405 54.189 28.3375 52.3569 27.5336C53.0848 26.2407 53.594 25.3361 54.139 24.3679C54.9838 24.9072 55.7226 25.4295 56.4973 25.8626C57.9562 26.678 59.4672 27.1073 61.0513 26.3635C61.9092 25.9607 62.7405 25.2681 62.4894 24.1341C62.3298 23.4136 61.601 22.6019 60.9752 22.3446C59.5799 21.7708 58.0721 21.5907 56.6415 21.1181C54.7676 20.4991 53.1937 19.3939 52.7424 16.9176C52.3204 14.6021 53.0978 12.4273 54.7426 11.2231C57.493 9.20944 62.2858 9.76092 64.7618 12.3982C64.7365 12.5169 64.7336 12.671 64.6748 12.7852C63.479 15.1079 63.4771 15.1084 61.4522 14.0014C60.1323 13.2798 58.7349 12.8882 57.3734 13.5819C56.7514 13.8988 56.0353 14.7063 55.9265 15.4119C55.8533 15.8871 56.6799 16.8548 57.2597 17.1085C58.5677 17.681 59.9718 17.9501 61.3379 18.3372C64.8064 19.3201 66.3613 22.0144 65.5606 25.6594C65.0161 28.1381 63.1257 29.717 60.328 29.9187C59.4271 29.9837 58.515 29.8326 57.5005 29.7619Z" fill="white"></path><path d="M201.54 16.4779C201.54 14.392 201.54 12.4525 201.54 10.4204C202.632 10.4204 203.6 10.4204 204.73 10.4204C204.73 12.8003 204.728 15.1264 204.731 17.4525C204.732 19.0621 204.7 20.6735 204.754 22.2808C204.843 24.9087 206.389 26.6779 208.559 26.7195C210.744 26.7613 212.397 24.9428 212.452 22.2362C212.523 18.7261 212.475 15.2128 212.483 11.7009C212.484 11.3168 212.514 10.9329 212.535 10.4394C213.541 10.4394 214.509 10.4394 215.541 10.4394C215.581 10.6528 215.659 10.8804 215.659 11.1083C215.667 14.7666 215.725 18.4265 215.65 22.0827C215.564 26.2801 213.555 29.0435 210.197 29.8092C206.751 30.5951 203.47 28.9086 202.244 25.5682C201.844 24.4781 201.656 23.23 201.582 22.036C201.47 20.2404 201.545 18.429 201.54 16.4779Z" fill="white"></path><path d="M224.649 10.3273C225.683 10.3554 226.609 10.2632 227.499 10.4334C230.547 11.0167 232.558 14.1204 232.341 17.7793C232.136 21.2427 229.873 23.6475 226.628 23.7881C225.271 23.8469 223.911 23.7979 222.42 23.7979C222.42 25.7598 222.42 27.5894 222.42 29.5359C221.321 29.5359 220.353 29.5359 219.29 29.5359C219.29 23.2323 219.29 16.9138 219.29 10.3273C221.006 10.3273 222.766 10.3273 224.649 10.3273ZM228.171 19.9525C229.922 17.6941 229.312 14.2712 226.935 13.7327C225.489 13.4052 223.946 13.6723 222.467 13.6723C222.467 16.0177 222.467 18.229 222.467 20.8033C224.386 20.5516 226.195 20.3144 228.171 19.9525Z" fill="white"></path><path d="M124.211 26.727C123.509 26.7277 122.912 26.6287 122.355 26.7618C121.938 26.8615 121.416 27.1473 121.209 27.5442C119.998 29.8668 119.673 30.056 116.985 29.4375C119.753 23.0468 122.498 16.7061 125.402 10C128.316 16.7273 131.063 23.07 133.911 29.6458C132.788 29.6458 131.902 29.7934 131.08 29.586C130.643 29.4757 130.163 28.826 129.974 28.2875C129.551 27.0828 128.954 26.564 127.81 26.6976C126.661 26.8317 125.493 26.7271 124.211 26.727ZM126.333 19.9681C126.047 19.3136 125.762 18.6591 125.361 17.7415C124.54 19.799 123.849 21.531 123.116 23.3668C124.739 23.3668 126.14 23.3668 127.671 23.3668C127.204 22.1835 126.807 21.1753 126.333 19.9681Z" fill="white"></path><path d="M66.3808 11.6789C66.1972 11.2481 66.0607 10.908 65.834 10.3429C66.9588 10.3429 67.9399 10.2545 68.8983 10.3896C69.2471 10.4387 69.6285 10.9571 69.8461 11.3702C70.8051 13.1911 71.7067 15.0537 72.6363 16.8962C72.8614 17.3425 73.1137 17.7697 73.5068 18.4843C74.5003 16.5205 75.3809 14.7865 76.256 13.0486C77.8131 9.95622 77.8552 9.93134 81.1139 10.4878C80.8776 10.9897 80.6804 11.4485 80.4529 11.8852C78.9167 14.8328 77.3101 17.7332 75.8688 20.7435C75.3712 21.7828 75.1685 23.0746 75.0338 24.2824C74.8949 25.5277 74.9124 26.8224 75.0257 28.075C75.1645 29.6097 74.476 29.6923 73.478 29.6811C72.5062 29.6701 71.708 29.6531 71.9256 28.0965C72.5397 23.7023 71.1577 20.0365 68.988 16.6023C68.0288 15.0841 67.275 13.386 66.3808 11.6789Z" fill="white"></path><path d="M142.352 29.6566C140.239 29.6563 138.25 29.6265 136.262 29.6704C135.494 29.6873 135.142 29.4562 135.148 28.4554C135.177 22.7967 135.174 17.1377 135.15 11.479C135.146 10.5714 135.444 10.2355 136.178 10.3237C136.382 10.3483 136.597 10.3631 136.798 10.3199C138.126 10.0337 138.376 10.7957 138.352 12.2025C138.283 16.3475 138.374 20.4962 138.302 24.641C138.278 26.0236 138.578 26.5416 139.811 26.4597C141.628 26.339 143.455 26.4278 145.278 26.4289C147.077 26.43 147.081 26.4311 146.99 28.5215C146.976 28.8512 146.902 29.1774 146.835 29.6566C145.358 29.6566 143.917 29.6566 142.352 29.6566Z" fill="white"></path><defs><clipPath id="clip0_2_645"><rect width="40" height="40" fill="white"></rect></clipPath></defs></svg>